HIERARCHY
ROOT root     
{
	OFFSET 0.0000 0.0000 0.0000
	CHANNELS 6 Xposition Yposition Zposition Zrotation Yrotation Xrotation
	JOINT pelvis   
	{
		OFFSET 0.0000 0.0000 0.0000
		CHANNELS 3 Zrotation Yrotation Xrotation
		JOINT thorax   
		{
			OFFSET 0.0000 23.0750 -5.0000
			CHANNELS 3 Zrotation Yrotation Xrotation
			JOINT rclavicle
			{
				OFFSET 0.0000 28.0009 0.0000
				CHANNELS 3 Zrotation Yrotation Xrotation
				JOINT rhumerus 
				{
					OFFSET -18.5725 5.5939 0.0000
					CHANNELS 3 Zrotation Yrotation Xrotation
					JOINT rradius  
					{
						OFFSET -24.8459 0.0000 0.0000
						CHANNELS 3 Zrotation Yrotation Xrotation
						JOINT rhand    
						{
							OFFSET -24.5477 0.0000 0.0000
							CHANNELS 3 Zrotation Yrotation Xrotation
							End Site
							{
								OFFSET -8.1826 0.0000 0.0000
							}
						}
					}
				}
			}
			JOINT lclavicle
			{
				OFFSET 0.0000 28.0009 0.0000
				CHANNELS 3 Zrotation Yrotation Xrotation
				JOINT lhumerus 
				{
					OFFSET 18.5725 5.5939 0.0000
					CHANNELS 3 Zrotation Yrotation Xrotation
					JOINT lradius  
					{
						OFFSET 24.8459 0.0000 0.0000
						CHANNELS 3 Zrotation Yrotation Xrotation
						JOINT lhand    
						{
							OFFSET 24.5477 0.0000 0.0000
							CHANNELS 3 Zrotation Yrotation Xrotation
							End Site
							{
								OFFSET 8.1826 0.0000 0.0000
							}
						}
					}
				}
			}
			JOINT head     
			{
				OFFSET 0.0000 35.2030 0.0000
				CHANNELS 3 Zrotation Yrotation Xrotation
				End Site
				{
					OFFSET 0.0000 11.7343 0.0000
				}
			}
		}
		JOINT rfemur   
		{
			OFFSET -8.2817 0.0000 0.0000
			CHANNELS 3 Zrotation Yrotation Xrotation
			JOINT rtibia   
			{
				OFFSET 0.0000 -43.3627 0.0000
				CHANNELS 3 Zrotation Yrotation Xrotation
				JOINT rfoot    
				{
					OFFSET 0.0000 -38.2947 0.0000
					CHANNELS 3 Zrotation Yrotation Xrotation
					JOINT rtoes    
					{
						OFFSET 0.0000 0.0000 16.6054
						CHANNELS 3 Zrotation Yrotation Xrotation
						End Site
						{
							OFFSET 0.0000 0.0000 5.5351
						}
					}
				}
			}
		}
		JOINT lfemur   
		{
			OFFSET 8.2817 0.0000 0.0000
			CHANNELS 3 Zrotation Yrotation Xrotation
			JOINT ltibia   
			{
				OFFSET 0.0000 -43.3627 0.0000
				CHANNELS 3 Zrotation Yrotation Xrotation
				JOINT lfoot    
				{
					OFFSET 0.0000 -38.2947 0.0000
					CHANNELS 3 Zrotation Yrotation Xrotation
					JOINT ltoes    
					{
						OFFSET 0.0000 0.0000 16.6054
						CHANNELS 3 Zrotation Yrotation Xrotation
						End Site
						{
							OFFSET 0.0000 0.0000 5.5351
						}
					}
				}
			}
		}
	}
}
MOTION
Frames: 15
Frame Time: .0333333
116.66 69.814 18.375 77.5075 -87.0342 -6.07241 0 -0 0 -1.90581 -8.05299 21.4555 21.6332 -12.9481 0.000111545 56.6191 -21.6624 -24.5154 -0 8.73036 -0 -0.856188 15.6614 -0.117797 -16.0974 13.8613 -3.07766e-05 -62.4761 39.1507 -1.5161 0 -20.7336 0 -2.15773 -3.46116 0.0651967 1.11369 2.06258 -40.604 10.1367 -9.66773 -114.721 -0 -0 75.8008 6.05962e-07 -5.23962 -15.6052 1.41311 1.60848e-05 -60.8202 -12.4701 1.65903 -113.595 -0 -0 74.7497 4.0471e-06 10.0984 -18.0238 -3.15413 -3.85715e-05 -44.4608 
116.47 69.731 18.364 77.0912 -87.0653 -5.56405 0 -0 0 -1.8583 -8.03968 21.4225 21.7171 -12.9722 -6.02542e-05 56.6538 -21.3331 -24.196 -0 9.04508 -0 -1.02729 15.5942 -0.1407 -16.2128 13.8751 6.40555e-05 -62.4727 38.7411 -1.70031 0 -20.8257 0 -2.14667 -3.49646 0.0654983 1.09499 2.04035 -40.7609 10.1546 -9.64333 -114.758 -0 -0 76.0428 7.97427e-06 -5.26464 -15.8117 1.43817 -1.43886e-05 -60.9733 -12.4248 1.70513 -113.685 -0 -0 75.0363 -2.18863e-07 10.1582 -18.212 -3.20523 -2.99313e-05 -44.6801 
116.28 69.648 18.352 76.5644 -87.0955 -4.95251 0 -0 0 -1.80451 -8.02763 21.395 21.8115 -12.9884 -0.000151671 56.6707 -20.9543 -23.8908 -0 9.30655 -0 -1.19148 15.5453 -0.162592 -16.3413 13.8878 -0.000137496 -62.4593 38.2908 -1.88509 0 -20.9039 0 -2.1195 -3.51826 0.065099 1.07063 2.02194 -40.9266 10.1803 -9.61656 -114.773 -0 -0 76.2825 -2.49635e-05 -5.29768 -16.032 1.46696 -2.78939e-05 -61.1037 -12.3738 1.75835 -113.763 -0 -0 75.3294 2.82373e-05 10.2342 -18.397 -3.26129 9.27046e-06 -44.8928 
116.08 69.565 18.337 75.8502 -87.1473 -4.18008 0 -0 0 -1.73683 -8.01561 21.3697 21.9164 -12.9918 -6.15772e-05 56.6695 -20.5359 -23.5908 -0 9.53111 -0 -1.34986 15.515 -0.183913 -16.4874 13.8938 -1.41891e-05 -62.4308 37.8002 -2.06447 0 -20.9702 0 -2.0726 -3.53054 0.063901 1.03673 2.00597 -41.0968 10.213 -9.58428 -114.764 -0 -0 76.5162 -1.25969e-05 -5.34167 -16.2672 1.50026 -1.70936e-05 -61.2109 -12.3132 1.82114 -113.829 -0 -0 75.627 -4.99004e-05 10.3245 -18.5766 -3.32131 -1.29534e-05 -45.0937 
115.87 69.484 18.32 74.9401 -87.1935 -3.21446 0 -0 0 -1.65341 -8.00324 21.3445 22.0311 -12.985 5.27054e-05 56.6518 -20.0699 -23.2961 -0 9.70517 -0 -1.50214 15.5159 -0.204704 -16.6505 13.8944 -0.000155819 -62.3841 37.2639 -2.22299 0 -21.0239 0 -2.00156 -3.53459 0.061802 0.992524 1.99023 -41.2743 10.249 -9.54796 -114.731 -0 -0 76.7472 -6.75728e-06 -5.39665 -16.5145 1.53817 -2.7686e-05 -61.2887 -12.2424 1.893 -113.881 -0 -0 75.9293 5.78435e-05 10.4261 -18.7499 -3.38493 -1.01035e-05 -45.2798 
115.65 69.406 18.303 74.0033 -87.2533 -2.2487 0 -0 0 -1.56629 -7.9968 21.3169 22.1601 -12.9691 1.73824e-05 56.6187 -19.5481 -23.0021 -5.24568e-08 9.82303 -6.10443e-07 -1.64966 15.5597 -0.225399 -16.8278 13.8894 -1.9163e-05 -62.3095 36.6759 -2.3483 0 -21.0716 0 -1.90684 -3.52709 0.0586977 0.943447 1.97418 -41.456 10.2766 -9.51744 -114.677 -0 -0 76.9758 1.96729e-06 -5.45915 -16.769 1.57941 3.75356e-06 -61.3352 -12.1658 1.96438 -113.915 -0 -0 76.2287 -3.01625e-05 10.5374 -18.9159 -3.4509 -1.33236e-05 -45.4472 
115.43 69.332 18.285 72.8576 -87.3054 -1.07746 0 -0 0 -1.46191 -7.98803 21.2871 22.2962 -12.9474 0.000112621 56.5716 -18.9685 -22.6956 -0 9.89113 -0 -1.80074 15.6402 -0.247302 -17.0215 13.88 -3.19084e-05 -62.206 36.0245 -2.42921 1.18537e-07 -21.1089 -6.36193e-07 -1.78425 -3.51695 0.0547991 0.885171 1.95201 -41.6469 10.2966 -9.48518 -114.599 -0 -0 77.2001 -1.71579e-05 -5.52855 -17.0237 1.62317 -2.568e-05 -61.3696 -12.0754 2.04301 -113.933 -0 -0 76.529 -2.71973e-05 10.6512 -19.0742 -3.51707 7.492e-06 -45.6016 
115.2 69.263 18.268 71.8169 -87.3478 -0.0236134 0 -0 0 -1.36049 -7.98629 21.2515 22.448 -12.9156 5.47857e-06 56.5148 -18.3429 -22.3676 -5.30693e-08 9.9343 -6.10611e-07 -1.96159 15.7394 -0.271206 -17.2288 13.8676 7.61616e-05 -62.066 35.3062 -2.46325 1.18768e-07 -21.145 -6.36315e-07 -1.64102 -3.49751 0.0501009 0.827076 1.92481 -41.8492 10.2952 -9.46604 -114.501 -0 -0 77.424 2.58083e-05 -5.59963 -17.2713 1.66736 3.32962e-05 -61.3978 -11.9786 2.11636 -113.926 -0 -0 76.8229 -5.01298e-05 10.7659 -19.2243 -3.58238 7.90911e-06 -45.7485 
114.95 69.2 18.25 70.7492 -87.3757 1.05161 0 -0 0 -1.2513 -7.98273 21.2122 22.6085 -12.8791 -5.58318e-05 56.4539 -17.6624 -22.0083 -0 9.95808 -0 -2.1411 15.8395 -0.29789 -17.4484 13.8564 8.71362e-05 -61.8851 34.5061 -2.43962 0 -21.1765 0 -1.47686 -3.47501 0.0447988 0.766246 1.88651 -42.069 10.2723 -9.45191 -114.379 -0 -0 77.6471 -9.16455e-06 -5.67175 -17.5025 1.71095 1.54947e-05 -61.4414 -11.8672 2.1923 -113.893 -0 -0 77.1119 -8.75624e-06 10.8754 -19.3637 -3.64483 -1.46677e-06 -45.906 
114.7 69.144 18.232 69.7214 -87.4046 2.06184 0 -0 0 -1.14162 -7.97758 21.1691 22.7804 -12.8336 -5.46089e-05 56.3958 -16.9323 -21.6133 -0 9.9843 -0 -2.34657 15.9142 -0.328 -17.6792 13.848 9.06298e-05 -61.66 33.6135 -2.36066 1.19161e-07 -21.2067 -6.36518e-07 -1.29588 -3.45076 0.0389992 0.706619 1.83597 -42.3112 10.223 -9.44768 -114.229 -0 -0 77.868 -4.11034e-06 -5.74304 -17.7131 1.7527 -1.06181e-06 -61.5194 -11.7419 2.26816 -113.826 -0 -0 77.3927 8.32523e-05 10.9783 -19.4936 -3.70391 -1.2094e-05 -46.0836 
114.44 69.096 18.214 68.7156 -87.4238 3.03371 0 -0 0 -1.03145 -7.96629 21.1244 22.9597 -12.7814 -0.000103269 56.3425 -16.1475 -21.1706 -0 10.0242 -0 -2.58865 15.9331 -0.362313 -17.9165 13.8466 2.52565e-06 -61.3891 32.6161 -2.2233 1.19306e-07 -21.2302 -6.36579e-07 -1.09949 -3.43055 0.0328998 0.648731 1.77042 -42.583 10.1434 -9.45027 -114.042 -0 -0 78.0831 -1.8272e-05 -5.81484 -17.8988 1.79274 1.51055e-05 -61.65 -11.5997 2.34715 -113.719 -0 -0 77.6635 -4.02606e-06 11.0731 -19.6145 -3.75865 4.90899e-05 -46.2987 
114.16 69.057 18.195 67.9081 -87.4388 3.77933 0 -0 0 -0.930204 -7.95228 21.0771 23.1511 -12.7045 8.92268e-05 56.2997 -15.3277 -20.7087 -5.40262e-08 10.1086 -6.10852e-07 -2.86193 15.8571 -0.398701 -18.1668 13.8444 1.88621e-05 -61.0718 31.5181 -2.0486 0 -21.2581 0 -0.899396 -3.40653 0.0266999 0.595579 1.69264 -42.8885 10.03 -9.46264 -113.815 -0 -0 78.292 -2.25634e-05 -5.89002 -18.0586 1.83174 1.11142e-05 -61.8344 -11.444 2.42546 -113.571 -0 -0 77.9209 -1.05123e-06 11.1628 -19.7227 -3.80979 7.21698e-06 -46.5618 
113.87 69.027 18.175 67.1572 -87.46 4.43006 0 -0 0 -0.836194 -7.93084 21.0284 23.3527 -12.6019 3.07501e-05 56.2724 -14.4684 -20.2352 -5.4745e-08 10.2393 -6.11038e-07 -3.17198 15.6652 -0.436497 -18.425 13.8413 3.65396e-05 -60.7102 30.3095 -1.84463 0 -21.2838 0 -0.694893 -3.38548 0.0204995 0.545805 1.60161 -43.2286 9.8839 -9.48031 -113.539 -0 -0 78.4897 2.05747e-05 -5.97417 -18.1971 1.8718 -1.28637e-05 -62.0758 -11.2717 2.50744 -113.37 -0 -0 78.1613 -9.00796e-05 11.2502 -19.8195 -3.85847 -1.32342e-05 -46.8787 
113.56 69.007 18.153 66.538 -87.4854 4.90917 0 -0 0 -0.750695 -7.90056 20.9797 23.5604 -12.4666 3.05779e-05 56.2616 -13.5682 -19.7696 -0 10.4192 -0 -3.51784 15.3378 -0.473878 -18.6913 13.8313 -0.000141438 -60.3081 28.9938 -1.62808 0 -21.3036 0 -0.486395 -3.37048 0.0142998 0.498506 1.49899 -43.6107 9.70546 -9.49981 -113.205 -0 -0 78.6704 -3.52424e-06 -6.07432 -18.3202 1.91585 3.32595e-05 -62.3634 -11.0827 2.59511 -113.111 -0 -0 78.3864 -7.30444e-07 11.3401 -19.9028 -3.90556 3.79023e-05 -47.2491 
113.23 68.997 18.127 66.0373 -87.4705 5.27356 0 -0 0 -0.67446 -7.86061 20.9313 23.7743 -12.2912 -9.01384e-05 56.265 -12.6263 -19.3362 -0 10.6445 -0 -3.8963 14.8694 -0.508587 -18.9635 13.8052 -0.000118846 -59.8697 27.5697 -1.41801 0 -21.3129 0 -0.271702 -3.36478 0.00799994 0.452092 1.3867 -44.0316 9.49654 -9.51918 -112.802 -0 -0 78.826 2.86995e-05 -6.19812 -18.4386 1.96736 2.377e-05 -62.6777 -10.878 2.68924 -112.789 -0 -0 78.591 -8.10844e-05 11.4381 -19.9725 -3.95335 2.36059e-05 -47.6749 
